[Header]
FileType HTR
DataType HTRS
FileVersion 1
NumSegments 64
NumFrames 4
DataFrameRate 24
EulerRotationOrder ZYX
CalibrationUnits mm
RotationUnits Degrees
GlobalAxisofGravity Y
BoneLengthAxis Y
ScaleFactor 1.0
[SegmentNames&Hierarchy]
Hips	GLOBAL
Spine	Hips
Spine1	Spine
Spine2	Spine1
Neck	Spine2
Head	Neck
LeftEye	Head
RightEye	Head
LeftShoulder	Spine2
LeftArm	LeftShoulder
LeftForeArm	LeftArm
LeftHand	LeftForeArm
LeftHandThumb1	LeftHand
LeftHandThumb2	LeftHandThumb1
LeftHandThumb3	LeftHandThumb2
LeftHandThumb4	LeftHandThumb3
LeftHandIndex1	LeftHand
LeftHandIndex2	LeftHandIndex1
LeftHandIndex3	LeftHandIndex2
LeftHandIndex4	LeftHandIndex3
LeftHandMiddle1	LeftHand
LeftHandMiddle2	LeftHandMiddle1
LeftHandMiddle3	LeftHandMiddle2
LeftHandMiddle4	LeftHandMiddle3
LeftHandRing1	LeftHand
LeftHandRing2	LeftHandRing1
LeftHandRing3	LeftHandRing2
LeftHandRing4	LeftHandRing3
LeftHandPinky1	LeftHand
LeftHandPinky2	LeftHandPinky1
LeftHandPinky3	LeftHandPinky2
LeftHandPinky4	LeftHandPinky3
RightShoulder	Spine2
RightArm	RightShoulder
RightForeArm	RightArm
RightHand	RightForeArm
RightHandPinky1	RightHand
RightHandPinky2	RightHandPinky1
RightHandPinky3	RightHandPinky2
RightHandPinky4	RightHandPinky3
RightHandRing1	RightHand
RightHandRing2	RightHandRing1
RightHandRing3	RightHandRing2
RightHandRing4	RightHandRing3
RightHandMiddle1	RightHand
RightHandMiddle2	RightHandMiddle1
RightHandMiddle3	RightHandMiddle2
RightHandMiddle4	RightHandMiddle3
RightHandIndex1	RightHand
RightHandIndex2	RightHandIndex1
RightHandIndex3	RightHandIndex2
RightHandIndex4	RightHandIndex3
RightHandThumb1	RightHand
RightHandThumb2	RightHandThumb1
RightHandThumb3	RightHandThumb2
RightHandThumb4	RightHandThumb3
LeftUpLeg	Hips
LeftLeg	LeftUpLeg
LeftFoot	LeftLeg
LeftToeBase	LeftFoot
RightUpLeg	Hips
RightLeg	RightUpLeg
RightFoot	RightLeg
RightToeBase	RightFoot
[BasePosition]
Hips	0	0	0	0	0	0	1
Spine	0	0	0	0	0	0	1
Spine1	0	0	0	0	0	0	1
Spine2	0	0	0	0	0	0	1
Neck	0	0	0	0	0	0	1
Head	0	0	0	0	0	0	1
LeftEye	0	0	0	0	0	0	1
RightEye	0	0	0	0	0	0	1
LeftShoulder	0	0	0	0	0	0	1
LeftArm	0	0	0	0	0	0	1
LeftForeArm	0	0	0	0	0	0	1
LeftHand	0	0	0	0	0	0	1
LeftHandThumb1	0	0	0	0	0	0	1
LeftHandThumb2	0	0	0	0	0	0	1
LeftHandThumb3	0	0	0	0	0	0	1
LeftHandThumb4	0	0	0	0	0	0	1
LeftHandIndex1	0	0	0	0	0	0	1
LeftHandIndex2	0	0	0	0	0	0	1
LeftHandIndex3	0	0	0	0	0	0	1
LeftHandIndex4	0	0	0	0	0	0	1
LeftHandMiddle1	0	0	0	0	0	0	1
LeftHandMiddle2	0	0	0	0	0	0	1
LeftHandMiddle3	0	0	0	0	0	0	1
LeftHandMiddle4	0	0	0	0	0	0	1
LeftHandRing1	0	0	0	0	0	0	1
LeftHandRing2	0	0	0	0	0	0	1
LeftHandRing3	0	0	0	0	0	0	1
LeftHandRing4	0	0	0	0	0	0	1
LeftHandPinky1	0	0	0	0	0	0	1
LeftHandPinky2	0	0	0	0	0	0	1
LeftHandPinky3	0	0	0	0	0	0	1
LeftHandPinky4	0	0	0	0	0	0	1
RightShoulder	0	0	0	0	0	0	1
RightArm	0	0	0	0	0	0	1
RightForeArm	0	0	0	0	0	0	1
RightHand	0	0	0	0	0	0	1
RightHandPinky1	0	0	0	0	0	0	1
RightHandPinky2	0	0	0	0	0	0	1
RightHandPinky3	0	0	0	0	0	0	1
RightHandPinky4	0	0	0	0	0	0	1
RightHandRing1	0	0	0	0	0	0	1
RightHandRing2	0	0	0	0	0	0	1
RightHandRing3	0	0	0	0	0	0	1
RightHandRing4	0	0	0	0	0	0	1
RightHandMiddle1	0	0	0	0	0	0	1
RightHandMiddle2	0	0	0	0	0	0	1
RightHandMiddle3	0	0	0	0	0	0	1
RightHandMiddle4	0	0	0	0	0	0	1
RightHandIndex1	0	0	0	0	0	0	1
RightHandIndex2	0	0	0	0	0	0	1
RightHandIndex3	0	0	0	0	0	0	1
RightHandIndex4	0	0	0	0	0	0	1
RightHandThumb1	0	0	0	0	0	0	1
RightHandThumb2	0	0	0	0	0	0	1
RightHandThumb3	0	0	0	0	0	0	1
RightHandThumb4	0	0	0	0	0	0	1
LeftUpLeg	0	0	0	0	0	0	1
LeftLeg	0	0	0	0	0	0	1
LeftFoot	0	0	0	0	0	0	1
LeftToeBase	0	0	0	0	0	0	1
RightUpLeg	0	0	0	0	0	0	1
RightLeg	0	0	0	0	0	0	1
RightFoot	0	0	0	0	0	0	1
RightToeBase	0	0	0	0	0	0	1
[Hips]
38	1.59724617	776.5843506	202.6164093	-4.044780731	0.1413098276	-1.835861206	1.0
39	1.588877439	812.9454346	166.689743	-3.455025196	0.0527914688	-1.794289827	1.0
40	1.400896311	848.3040771	132.6699677	-2.672922611	0.03098674305	-1.536296368	1.0
41	1.086288095	879.0540771	103.0260315	-1.964115858	0.0271090176	-1.181751013	1.0
[Spine]
38	0	101.8159943	1.315000057	9.662302971	16.04301071	4.612918377	1.0
39	0	101.8159943	1.315000057	8.696185112	16.29115868	4.317269802	1.0
40	0	101.8159943	1.315000057	8.554402351	13.19423389	3.554080486	1.0
41	0	101.8159943	1.315000057	8.530982971	6.807147503	2.224125385	1.0
[Spine1]
38	0	100.8349991	-10.00800037	-10.49522018	16.27237701	-3.028991222	1.0
39	0	100.8349991	-10.00800037	-8.717189789	16.45117378	-2.535388231	1.0
40	0	100.8349991	-10.00800037	-8.554978371	13.29688358	-2.020943403	1.0
41	0	100.8349991	-10.00800037	-8.528988838	6.884940624	-1.043770552	1.0
[Spine2]
38	0	91	-13.73399925	-0.3209990561	16.54406548	-0.09291981906	1.0
39	0	91	-13.73399925	-0.004609656986	16.64000893	-0.001345005468	1.0
40	0	91	-13.73399925	0.001598744537	13.4467783	0.0003930722596	1.0
41	0	91	-13.73399925	0.001888915431	6.96222353	0.0005015259958	1.0
[Neck]
38	0	166.7169952	-25.16200066	0.6333656907	-16.63202095	0.790497601	1.0
39	0	166.7169952	-25.16200066	0.5518226027	-16.69920158	0.6768360138	1.0
40	0	166.7169952	-25.16200066	0.5307529569	-13.48407459	0.4317474365	1.0
41	0	166.7169952	-25.16200066	0.4048862159	-6.988001823	0.2989304066	1.0
[Head]
38	0	96.17900085	16.84999847	1.176172256	-33.06920242	0.4966872334	1.0
39	0	96.17900085	16.84999847	1.849683642	-33.39189911	0.1695124656	1.0
40	0	96.17900085	16.84999847	1.461984992	-26.96666527	0.1007353067	1.0
41	0	96.17900085	16.84999847	1.078809261	-13.97543907	0.06888077408	1.0
[LeftEye]
38	30.6760006	64.09500122	92.83599854	0	0	0	1.0
39	30.6760006	64.09500122	92.83599854	0	0	0	1.0
40	30.6760006	64.09500122	92.83599854	0	0	0	1.0
41	30.6760006	64.09500122	92.83599854	0	0	0	1.0
[RightEye]
38	-30.6760006	64.09500122	92.83499908	0	0	0	1.0
39	-30.6760006	64.09500122	92.83499908	0	0	0	1.0
40	-30.6760006	64.09500122	92.83499908	0	0	0	1.0
41	-30.6760006	64.09500122	92.83499908	0	0	0	1.0
[LeftShoulder]
38	45.70400238	109.4599991	-26.28000069	-0.04355664551	4.810663813e-05	-0.6862588525	1.0
39	45.70400238	109.4599991	-26.28000069	-0.0009475736297	-7.87674162e-06	-0.009580777958	1.0
40	45.70400238	109.4599991	-26.28000069	-0.0001184011489	1.101107682e-05	0.003740714863	1.0
41	45.70400238	109.4599991	-26.28000069	-8.048125164e-05	1.176096794e-05	0.004353408236	1.0
[LeftArm]
38	105.923996	-5.24600029	-22.32099915	1.252353787	0.001929323189	1.025050759	1.0
39	105.923996	-5.24600029	-22.32099915	0.04777704552	3.897397983e-05	0.01448821556	1.0
40	105.923996	-5.24600029	-22.32099915	3.591164112	7.538185309e-05	-0.005404589698	1.0
41	105.923996	-5.24600029	-22.32099915	13.6690073	3.24243083e-05	-0.006327206269	1.0
[LeftForeArm]
38	278.414978	-0.0009999999311	0	1.810924457e-13	-93.5464325	-0.0001983642578	1.0
39	278.414978	-0.0009999999311	0	1.909870983e-19	-99.95019531	-0.0001983642578	1.0
40	278.414978	-0.0009999999311	0	0	-100.033226	-0.0001983642578	1.0
41	278.414978	-0.0009999999311	0	3.81469772e-06	-100.0959244	-0.0002002716064	1.0
[LeftHand]
38	283.2879944	0	0	-6.182122231	-2.331402779	4.073131084	1.0
39	283.2879944	0	0	-5.898170471	-2.347819805	3.372448444	1.0
40	283.2879944	0	0	-5.892576694	-2.348127365	3.358649969	1.0
41	283.2879944	0	0	-5.892318726	-2.348139763	3.358016491	1.0
[LeftHandThumb1]
38	24.6609993	-15.75	26.8239994	-6.937333584	-5.573196888	5.725904465	1.0
39	24.6609993	-15.75	26.8239994	-6.521825314	-5.594162941	5.274644375	1.0
40	24.6609993	-15.75	26.8239994	-6.513650894	-5.594576836	5.265755653	1.0
41	24.6609993	-15.75	26.8239994	-6.513276577	-5.594593048	5.265346527	1.0
[LeftHandThumb2]
38	32.29800034	-18.64699936	18.64699936	5.96078968	12.51538467	2.661769152	1.0
39	32.29800034	-18.64699936	18.64699936	6.41536665	12.43192291	2.706530571	1.0
40	32.29800034	-18.64699936	18.64699936	6.424328804	12.43025017	2.707512617	1.0
41	32.29800034	-18.64699936	18.64699936	6.42474556	12.43016624	2.707587719	1.0
[LeftHandThumb3]
38	26.52600098	-15.31499958	15.31499958	-7.416919231	1.338621497	13.06117725	1.0
39	26.52600098	-15.31499958	15.31499958	-7.240054607	1.262362242	13.0948925	1.0
40	26.52600098	-15.31499958	15.31499958	-7.236587524	1.260850549	13.09564304	1.0
41	26.52600098	-15.31499958	15.31499958	-7.236430168	1.260777473	13.09570313	1.0
[LeftHandThumb4]
38	19.54599953	-11.28499985	11.28499985	0	0	0	1.0
39	19.54599953	-11.28499985	11.28499985	0	0	0	1.0
40	19.54599953	-11.28499985	11.28499985	0	0	0	1.0
41	19.54599953	-11.28499985	11.28499985	0	0	0	1.0
[LeftHandIndex1]
38	91.09299469	-5.170999527	22.60099792	-0.01242380496	2.543313026	-1.785416484	1.0
39	91.09299469	-5.170999527	22.60099792	-0.07175431401	2.675173998	-3.08861351	1.0
40	91.09299469	-5.170999527	22.60099792	-0.07295146585	2.677747488	-3.114271879	1.0
41	91.09299469	-5.170999527	22.60099792	-0.07300723344	2.67786622	-3.115453959	1.0
[LeftHandIndex2]
38	36.76399994	0	0	-1.491115995e-07	5.264035963e-08	-4.21089112e-07	1.0
39	36.76399994	0	0	-1.11787665e-06	-9.170833437e-06	-3.780546649e-07	1.0
40	36.76399994	0	0	-2.612773073e-07	1.361350655e-06	-7.386618381e-05	1.0
41	36.76399994	0	0	1.857696219e-08	2.259320127e-06	-6.476298586e-05	1.0
[LeftHandIndex3]
38	28.83100128	0	0	-0.0001742461318	-0.04513523355	0.4424673617	1.0
39	28.83100128	0	0	-6.702384781e-08	-0.0006304767448	0.006183388643	1.0
40	28.83100128	0	0	-9.5922735e-07	0.0002465857833	-0.002405927982	1.0
41	28.83100128	0	0	-4.956357316e-07	0.0002887682349	-0.002802595496	1.0
[LeftHandIndex4]
38	23.92700005	0	0	0	0	0	1.0
39	23.92700005	0	0	0	0	0	1.0
40	23.92700005	0	0	0	0	0	1.0
41	23.92700005	0	0	0	0	0	1.0
[LeftHandMiddle1]
38	95.33399963	0	0	-0.008216182701	2.533650637	-1.690427899	1.0
39	95.33399963	0	0	-0.07169184834	2.675028086	-3.087289572	1.0
40	95.33399963	0	0	-0.07297493517	2.677809954	-3.114788055	1.0
41	95.33399963	0	0	-0.07303479314	2.677937031	-3.116054535	1.0
[LeftHandMiddle2]
38	36.98199844	0	0	2.898934099e-06	1.046328362e-05	-1.005178729e-05	1.0
39	36.98199844	0	0	2.697877335e-07	-6.361109437e-15	-7.951386796e-16	1.0
40	36.98199844	0	0	-2.301986115e-06	-1.655962842e-05	-2.594853868e-06	1.0
41	36.98199844	0	0	-1.93137771e-06	-1.401589998e-05	-6.440639027e-06	1.0
[LeftHandMiddle3]
38	29.50900078	0	0	-0.0002087341418	-0.04905682802	0.4807778299	1.0
39	29.50900078	0	0	-1.473887551e-06	-0.0006930814707	0.006716082338	1.0
40	29.50900078	0	0	1.012204166e-06	0.0002812230668	-0.002614811063	1.0
41	29.50900078	0	0	1.350771754e-06	0.0003257813805	-0.003045365214	1.0
[LeftHandMiddle4]
38	28.3390007	0	0	0	0	0	1.0
39	28.3390007	0	0	0	0	0	1.0
40	28.3390007	0	0	0	0	0	1.0
41	28.3390007	0	0	0	0	0	1.0
[LeftHandRing1]
38	91.04499817	-0.4390000105	-18.65100098	-0.01475934871	2.548655033	-1.837945223	1.0
39	91.04499817	-0.4390000105	-18.65100098	-0.07178781182	2.67524457	-3.089348555	1.0
40	91.04499817	-0.4390000105	-18.65100098	-0.0729386732	2.677716017	-3.113986969	1.0
41	91.04499817	-0.4390000105	-18.65100098	-0.07299226522	2.677830458	-3.115121841	1.0
[LeftHandRing2]
38	31.54000092	0	0	-5.747480714e-07	6.317364409e-07	-5.053577752e-06	1.0
39	31.54000092	0	0	-1.639050566e-07	4.457271174e-08	-4.235493805e-07	1.0
40	31.54000092	0	0	-2.47296299e-07	-2.272457351e-07	-2.600659718e-05	1.0
41	31.54000092	0	0	-7.651147627e-08	-1.674350756e-07	-2.288073119e-05	1.0
[LeftHandRing3]
38	29.37700081	0	0	-0.0001990476158	-0.04824728519	0.4729730487	1.0
39	29.37700081	0	0	1.108365836e-06	-0.0006683616666	0.006610539276	1.0
40	29.37700081	0	0	6.427439416e-07	0.0002675451688	-0.002569506411	1.0
41	29.37700081	0	0	4.399292663e-07	0.0003093363193	-0.002992141293	1.0
[LeftHandRing4]
38	26.47500038	0	0	0	0	0	1.0
39	26.47500038	0	0	0	0	0	1.0
40	26.47500038	0	0	0	0	0	1.0
41	26.47500038	0	0	0	0	0	1.0
[LeftHandPinky1]
38	80.77799988	-4.887000084	-38.06099701	-0.02343127318	2.568387508	-2.032235384	1.0
39	80.77799988	-4.887000084	-38.06099701	-0.07191639394	2.675505877	-3.09206605	1.0
40	80.77799988	-4.887000084	-38.06099701	-0.07289020717	2.677613258	-3.112930536	1.0
41	80.77799988	-4.887000084	-38.06099701	-0.07293539494	2.67771101	-3.113891602	1.0
[LeftHandPinky2]
38	36	0	0	0	-0	0	1.0
39	36	0	0	0	-0	0	1.0
40	36	0	0	-2.07462972e-06	-1.912379594e-05	-5.560310092e-05	1.0
41	36	0	0	-1.808805564e-06	-1.660382804e-05	-4.648791946e-05	1.0
[LeftHandPinky3]
38	21.14200211	0	0	-0.0002059965336	-0.04882607237	0.4785541594	1.0
39	21.14200211	0	0	7.936683346e-07	-0.000668409979	0.006690262351	1.0
40	21.14200211	0	0	3.612859246e-06	0.0002878812375	-0.002598124556	1.0
41	21.14200211	0	0	3.110603075e-06	0.0003272390459	-0.003026178572	1.0
[LeftHandPinky4]
38	19.75699997	0	0	0	0	0	1.0
39	19.75699997	0	0	0	0	0	1.0
40	19.75699997	0	0	0	0	0	1.0
41	19.75699997	0	0	0	0	0	1.0
[RightShoulder]
38	-45.70000076	109.4620056	-26.28000069	-0.04355564713	-2.534374471e-05	0.6862637401	1.0
39	-45.70000076	109.4620056	-26.28000069	-0.0009477942949	1.423907975e-06	0.009581001475	1.0
40	-45.70000076	109.4620056	-26.28000069	-0.0001169161696	1.718815099e-07	-0.003739540232	1.0
41	-45.70000076	109.4620056	-26.28000069	-7.912397268e-05	1.309273671e-06	-0.004352286924	1.0
[RightArm]
38	-105.9280014	-5.248000145	-22.32099915	1.252352238	-0.001856283983	-1.024920344	1.0
39	-105.9280014	-5.248000145	-22.32099915	0.04777820036	3.40532788e-05	-0.01434572134	1.0
40	-105.9280014	-5.248000145	-22.32099915	3.591163397	-1.439359676e-05	0.005498022307	1.0
41	-105.9280014	-5.248000145	-22.32099915	13.66900349	-9.663417586e-06	0.006410314701	1.0
[RightForeArm]
38	-278.414978	0	0	2.017164105e-13	93.54626465	1.525878906e-05	1.0
39	-278.414978	0	0	2.016272389e-19	99.9500351	7.597274372e-12	1.0
40	-278.414978	0	0	0	100.0330124	0	1.0
41	-278.414978	0	0	-1.277924093e-05	100.0956955	-4.100801107e-06	1.0
[RightHand]
38	-283.2879944	0	0.0009999999311	-4.970421791	2.261879921	-3.315629244	1.0
39	-283.2879944	0	0.0009999999311	-4.686287403	2.274544954	-2.615290403	1.0
40	-283.2879944	0	0.0009999999311	-4.680692673	2.27479291	-2.601504326	1.0
41	-283.2879944	0	0.0009999999311	-4.680436611	2.274804354	-2.600870371	1.0
[RightHandPinky1]
38	-80.76699829	-4.885000229	-38.06000137	-0.006459285505	-2.392390013	1.336611748	1.0
39	-80.76699829	-4.885000229	-38.06000137	-0.05153936148	-2.477751732	2.398268938	1.0
40	-80.76699829	-4.885000229	-38.06000137	-0.0524417311	-2.479430676	2.419168472	1.0
41	-80.76699829	-4.885000229	-38.06000137	-0.05248194188	-2.479507446	2.420127869	1.0
[RightHandPinky2]
38	-36	0	0.0009999999311	-1.711927808e-07	0.001593926805	-2.838719979e-07	1.0
39	-36	0	0.0009999999311	-1.562381584e-07	0.001594369998	1.301926841e-05	1.0
40	-36	0	0.0009999999311	3.7034917e-07	0.001591707114	1.931275074e-05	1.0
41	-36	0	0.0009999999311	-5.6282488e-07	0.001593632507	1.691300713e-05	1.0
[RightHandPinky3]
38	-21.14200211	0	0	-0.000162528042	0.0388180539	-0.4794670343	1.0
39	-21.14200211	0	0	1.376050136e-06	0.0005388528807	-0.006700358819	1.0
40	-21.14200211	0	0	-1.90060382e-06	-0.0002074085642	0.002607772825	1.0
41	-21.14200211	0	0	-1.588356668e-06	-0.0002458451199	0.003033771645	1.0
[RightHandPinky4]
38	-19.75699997	0	0	0	0	0	1.0
39	-19.75699997	0	0	0	0	0	1.0
40	-19.75699997	0	0	0	0	0	1.0
41	-19.75699997	0	0	0	0	0	1.0
[RightHandRing1]
38	-91.03599548	-0.4390000105	-18.65100098	0.001632816391	-2.375051737	1.141984105	1.0
39	-91.03599548	-0.4390000105	-18.65100098	-0.05142207071	-2.475932598	2.395548582	1.0
40	-91.03599548	-0.4390000105	-18.65100098	-0.05248788372	-2.477927685	2.420225143	1.0
41	-91.03599548	-0.4390000105	-18.65100098	-0.05253573507	-2.478018999	2.421358109	1.0
[RightHandRing2]
38	-31.54000092	0	0	8.561566744e-08	-3.180554719e-15	5.96354023e-16	1.0
39	-31.54000092	0	0	9.329902895e-08	-4.594907637e-07	3.984205978e-05	1.0
40	-31.54000092	0	0	1.361031821e-07	-2.570777191e-08	3.19119124e-07	1.0
41	-31.54000092	0	0	-4.836414291e-07	4.047723792e-07	1.446250644e-05	1.0
[RightHandRing3]
38	-29.37700081	0	0	-0.0001587321603	0.0383663401	-0.4738754928	1.0
39	-29.37700081	0	0	9.119492006e-07	0.0005257576122	-0.006623095367	1.0
40	-29.37700081	0	0	-1.579831974e-06	-0.0001979175431	0.002577034058	1.0
41	-29.37700081	0	0	-1.443395035e-06	-0.0002323255758	0.003000003053	1.0
[RightHandRing4]
38	-26.47500038	0	0	0	0	0	1.0
39	-26.47500038	0	0	0	0	0	1.0
40	-26.47500038	0	0	0	0	0	1.0
41	-26.47500038	0	0	0	0	0	1.0
[RightHandMiddle1]
38	-95.32500458	0	0	0.00774109317	-2.363091707	0.9942089915	1.0
39	-95.32500458	0	0	-0.05133218691	-2.475771427	2.393481731	1.0
40	-95.32500458	0	0	-0.05252305418	-2.477993488	2.421029568	1.0
41	-95.32500458	0	0	-0.05257659405	-2.478094578	2.422294617	1.0
[RightHandMiddle2]
38	-36.98199844	0	0	1.987846699e-16	3.180554719e-15	-2.981770115e-16	1.0
39	-36.98199844	0	0	-2.8496423e-08	2.327038118e-08	-4.253958821e-07	1.0
40	-36.98199844	0	0	5.99255543e-07	2.633528993e-06	1.703491037e-08	1.0
41	-36.98199844	0	0	-1.496494235e-07	4.380235623e-06	9.597908956e-07	1.0
[RightHandMiddle3]
38	-29.50900078	0	0	-0.000163968667	0.03699214756	-0.4816975892	1.0
39	-29.50900078	0	0	-9.732195849e-07	-0.001474518329	-0.006731663831	1.0
40	-29.50900078	0	0	-1.020119498e-06	-0.002228480065	0.002619720763	1.0
41	-29.50900078	0	0	2.907835608e-07	-0.002267329022	0.003047171049	1.0
[RightHandMiddle4]
38	-28.3390007	0	0.0009999999311	0	0	0	1.0
39	-28.3390007	0	0.0009999999311	0	0	0	1.0
40	-28.3390007	0	0.0009999999311	0	0	0	1.0
41	-28.3390007	0	0.0009999999311	0	0	0	1.0
[RightHandIndex1]
38	-91.08300018	-5.167999744	22.60099792	0.003811830655	-2.370800495	1.089365363	1.0
39	-91.08300018	-5.167999744	22.60099792	-0.05138935149	-2.475885153	2.394812822	1.0
40	-91.08300018	-5.167999744	22.60099792	-0.05250117183	-2.477926254	2.420513868	1.0
41	-91.08300018	-5.167999744	22.60099792	-0.05255237967	-2.478023052	2.421693802	1.0
[RightHandIndex2]
38	-36.76399994	0	0	-8.562039255e-08	6.361109437e-15	3.975693398e-16	1.0
39	-36.76399994	0	0	-2.981770115e-16	3.180554719e-15	2.484808473e-16	1.0
40	-36.76399994	0	0	1.361031821e-07	2.624962463e-06	1.233883467e-07	1.0
41	-36.76399994	0	0	3.783293323e-07	1.539158347e-06	-2.117575605e-06	1.0
[RightHandIndex3]
38	-28.83100128	0	0	-0.000138984833	0.03590239957	-0.4433097243	1.0
39	-28.83100128	0	0	-1.65587096e-07	0.0005055596121	-0.006195894442	1.0
40	-28.83100128	0	0	3.458269248e-06	-0.000197081361	0.002408638829	1.0
41	-28.83100128	0	0	3.044614232e-06	-0.0002293216676	0.002804597374	1.0
[RightHandIndex4]
38	-23.92700005	0	0	0	0	0	1.0
39	-23.92700005	0	0	0	0	0	1.0
40	-23.92700005	0	0	0	0	0	1.0
41	-23.92700005	0	0	0	0	0	1.0
[RightHandThumb1]
38	-24.64799881	-15.72700024	26.82600021	-7.959199905	7.597511768	-5.499831676	1.0
39	-24.64799881	-15.72700024	26.82600021	-7.541380882	7.619908333	-5.034361839	1.0
40	-24.64799881	-15.72700024	26.82600021	-7.533160686	7.620353222	-5.025190353	1.0
41	-24.64799881	-15.72700024	26.82600021	-7.532783985	7.620369911	-5.024768353	1.0
[RightHandThumb2]
38	-32.29800034	-18.64699936	18.64699936	6.635475636	-14.18748474	-3.747700453	1.0
39	-32.29800034	-18.64699936	18.64699936	7.091597557	-14.10614395	-3.791462183	1.0
40	-32.29800034	-18.64699936	18.64699936	7.100589752	-14.10451031	-3.792427063	1.0
41	-32.29800034	-18.64699936	18.64699936	7.101010323	-14.10442924	-3.792505264	1.0
[RightHandThumb3]
38	-26.52600098	-15.31399918	15.31399918	-4.13001585	-6.794404984	-14.17066765	1.0
39	-26.52600098	-15.31399918	15.31399918	-3.952962875	-6.715781689	-14.22095776	1.0
40	-26.52600098	-15.31399918	15.31399918	-3.949487448	-6.714229107	-14.22203064	1.0
41	-26.52600098	-15.31399918	15.31399918	-3.949331522	-6.714156151	-14.22210598	1.0
[RightHandThumb4]
38	-19.54599953	-11.28499985	11.28499985	0	0	0	1.0
39	-19.54599953	-11.28499985	11.28499985	0	0	0	1.0
40	-19.54599953	-11.28499985	11.28499985	0	0	0	1.0
41	-19.54599953	-11.28499985	11.28499985	0	0	0	1.0
[LeftUpLeg]
38	82.07800293	-67.51699829	-15.99599934	-24.02040482	-0.9401065707	1.36425817	1.0
39	82.07800293	-67.51699829	-15.99599934	-25.3565731	-0.7974112034	1.379636765	1.0
40	82.07800293	-67.51699829	-15.99599934	-25.98998642	-0.615460515	1.18600738	1.0
41	82.07800293	-67.51699829	-15.99599934	-25.17103195	-0.5047097206	0.8605669737	1.0
[LeftLeg]
38	0	-443.7049866	2.845999956	89.22484589	-0.06548713148	1.392232299	1.0
39	0	-443.7049866	2.845999956	83.66157532	0.06382577121	1.230608225	1.0
40	0	-443.7049866	2.845999956	77.27587891	0.164033547	0.9771391749	1.0
41	0	-443.7049866	2.845999956	69.75585175	0.1880790591	0.7772841454	1.0
[LeftFoot]
38	0	-444.2789917	-29.8219986	-33.44680786	-0.2373204678	-1.160718799	1.0
39	0	-444.2789917	-29.8219986	-30.94140244	-0.1524628848	-0.8705193996	1.0
40	0	-444.2789917	-29.8219986	-28.67091751	-0.07754204422	-0.5547851324	1.0
41	0	-444.2789917	-29.8219986	-26.4505291	-0.0413900502	-0.3442151845	1.0
[LeftToeBase]
38	0	-87.28699493	107.1060028	-32.35064697	-8.313274691e-08	1.736861037e-07	1.0
39	0	-87.28699493	107.1060028	-28.06064606	4.037734982e-07	-1.424441791e-07	1.0
40	0	-87.28699493	107.1060028	-23.61959839	-1.48699586e-08	-1.200074138e-07	1.0
41	0	-87.28699493	107.1060028	-19.34547806	-5.908475131e-08	-8.259045359e-08	1.0
[RightUpLeg]
38	-82.07800293	-67.51699829	-15.99599934	-55.41116333	1.011998773	1.217808485	1.0
39	-82.07800293	-67.51699829	-15.99599934	-52.07430649	1.019539475	1.332488179	1.0
40	-82.07800293	-67.51699829	-15.99599934	-50.50020218	0.8759647608	1.293834448	1.0
41	-82.07800293	-67.51699829	-15.99599934	-45.2178688	0.7088248134	1.066344738	1.0
[RightLeg]
38	0	-443.7049866	2.861999989	29.65130043	-1.155237913	-0.7465555072	1.0
39	0	-443.7049866	2.861999989	29.07802963	-1.045404434	-0.6587715149	1.0
40	0	-443.7049866	2.861999989	34.96190262	-0.7767345309	-0.6039921045	1.0
41	0	-443.7049866	2.861999989	38.03981018	-0.6113350391	-0.5033763647	1.0
[RightFoot]
38	0	-444.2770081	-29.83799934	29.80246353	-0.04605995864	0.06224336475	1.0
39	0	-444.2770081	-29.83799934	26.45085144	-0.03112275526	0.02543560229	1.0
40	0	-444.2770081	-29.83799934	18.21206856	-0.0241670534	0.01835414767	1.0
41	0	-444.2770081	-29.83799934	9.143061638	-0.02187800221	-0.0123103559	1.0
[RightToeBase]
38	0	-87.28699493	107.1060028	-1.515573604e-05	-2.909377805e-08	-1.999551955e-07	1.0
39	0	-87.28699493	107.1060028	-1.515573604e-05	-2.909377805e-08	-1.999551955e-07	1.0
40	0	-87.28699493	107.1060028	-1.515573604e-05	-2.909377805e-08	-1.999551955e-07	1.0
41	0	-87.28699493	107.1060028	-1.515573604e-05	-2.909377805e-08	-1.999551955e-07	1.0
[EndOfFile]
